<svg id="Layer_1" data-name="Layer 1" xmlns="http://www.w3.org/2000/svg" viewBox="0 0 973.13 150"><defs><style>.cls-1,.cls-3{fill:#b92025;}.cls-1,.cls-2,.cls-4{stroke:#231f20;stroke-miterlimit:10;}.cls-2{fill:#e6e86d;}.cls-3{font-size:48px;font-family:Ebrima-Bold, Ebrima;font-weight:700;}.cls-5{font-size:18px;fill:#231f20;}</style></defs><path class="cls-1" d="M68.35,97.5l-.2,3S65.7,91.82,52,98.48c0,0-9.7,2.36-17.35-3.53,0,0,9.41,5.2,27-2.94,0,0-1.08-2.45-10.1-2.06,0,0-23.43,6-40.5-8.23,0,0,7,3.13,18.73,3.53,0,0-21-5.69-27-27.66,0,0,7.35,9.42,15.49,12.65a36.56,36.56,0,0,1-10-34.91s.88,15.79,9.9,24.91c0,0-7.55-28,23.34-49.81,0,0-25.95,29.12-3.82,57.36,0,0,20.3,20.84,40.35,14,0,0,10.44-2.79,19.07-17.11,0,0-.21-1.76-6-.71-.39.07-3.44-.32-4-2,0,0,5.05,1.83,7.79-2.36,0,0-3.92-5.68-8.49-2.55,0,0,.78-3.66,5.36-2.81s9.85,1.94,18.23,10.27c0,0-6.68-2-9,3.23-1,2.2-3.63,6.56-.69,10.91l.17.24c3.2,4.51,16.46,8,25.19,5.52S143.1,80.9,152,68.15c0,0,12.64-13.69,7.74-35.37-3.53-11.27-7.16-17.55-11.77-22.35a47.45,47.45,0,0,1,20.3,23.43c5.49,9.81,3.24,26.68,3.24,26.68s8.14-6.08,9.71-25.11a36.46,36.46,0,0,1-9.81,34.81s6.87-2.35,15.4-12.45c0,0-2.06,18.08-26.77,27.18,0,0,8.53,1.65,18.53-3.55,0,0-13.93,14-40.5,8.83,0,0-2.75-.88-5.1,2.06,0,0,11.08,7.74,22.26,2.45,0,0-7.45,7.06-21,2.25,0,0-9.22-4.11-12.07,3.34l-.58-2.94s-18.21,8.63-18.21,23.43c0,10.2,21,10.34,28.4,7.45,0,0,13.34-6.37,30.11.4,0,0-18.93-4.59-25.89,2.31,0,0-22.94,11.12-36-3.49,0,0,3.53,13.14,23.54,10.3,0,0,13.73-4.61,23.63-2.36,0,0-15-.19-18,3.53,0,0-24.64,11-32.62-8.53,0,0,1.24,21.28,29.28,15,0,0-25.89,12.85-32.55-10.88,0,0-3.73,18.67-23.05,14.36,0,0,19.42-.34,18.24-18.28,0,0-6.86,18.24-27.85,12.26,0,0-12.65-8.24-25.89-6.67,0,0,19.71-3.34,27.27,1.86,0,0,17.06,6.86,24.61-12a20.4,20.4,0,0,1-23.24,5S41,122.61,24.52,134c0,0,10.88-12.65,32.06-9C56.58,125,100,136.63,68.35,97.5Z" transform="translate(-1.61 -4.99)"/><path class="cls-2" d="M96.53,57.14s3.49,0,3.49,2.07C100,59.21,96.53,59.21,96.53,57.14Z" transform="translate(-1.61 -4.99)"/><text class="cls-3" transform="translate(225.77 74.76)"><tspan class="cls-4">Phoenix Automotive Group, Inc.</tspan><tspan class="cls-5"><tspan x="297.56" y="36">DMV #7113579</tspan></tspan></text></svg>